<?xml version="1.0" encoding="utf-8"?>
<!-- Generator: Adobe Illustrator 16.0.0, SVG Export Plug-In . SVG Version: 6.00 Build 0)  -->
<!DOCTYPE svg PUBLIC "-//W3C//DTD SVG 1.1//EN" "http://www.w3.org/Graphics/SVG/1.1/DTD/svg11.dtd">
<svg version="1.1" id="Layer_1" xmlns="http://www.w3.org/2000/svg" xmlns:xlink="http://www.w3.org/1999/xlink" x="0px" y="0px"
	 width="219.865px" height="219.872px" viewBox="0 0 219.865 219.872" enable-background="new 0 0 219.865 219.872"
	 xml:space="preserve">
<polygon fill="#262261" points="24.932,10.795 10.795,24.932 10.795,194.974 24.898,209.076 194.649,209.076 209.069,194.656 
	209.069,24.973 194.892,10.795 "/>
<g>
	<g>
		<path fill="#FFFFFF" d="M58.593,46.198c0-5.16,1.896-9.419,5.685-12.78c3.787-3.359,8.281-5.04,13.479-5.04
			c5.748,0,10.501,1.688,14.263,5.066c3.758,3.378,5.64,7.646,5.64,12.806c0,5.125-1.861,9.38-5.581,12.767
			c-3.721,3.387-8.406,5.079-14.055,5.079c-5.65,0-10.303-1.685-13.952-5.053C60.419,55.675,58.593,51.393,58.593,46.198z
			 M78.14,35.346c-3.248-0.053-5.865,0.958-7.854,3.032c-1.987,2.075-2.98,4.752-2.98,8.033c0,3.104,1.014,5.674,3.039,7.713
			c2.029,2.039,4.589,3.059,7.68,3.059c3.248,0,5.87-1.006,7.869-3.019c1.996-2.012,2.996-4.668,2.996-7.966
			c0-3.244-0.979-5.851-2.939-7.82C83.991,36.409,81.389,35.4,78.14,35.346z"/>
		<path fill="#FFFFFF" d="M103.5,33.378h7.559v7.847h3.633v6.25h-3.633v16.622H103.5V47.475h-2.895v-6.25h2.895V33.378z"/>
		<path fill="#FFFFFF" d="M120.796,33.378h7.559v7.847h3.633v6.25h-3.633v16.622h-7.559V47.475h-2.895v-6.25h2.895V33.378z"/>
		<path fill="#FFFFFF" d="M135.013,52.235c0-3.528,1.249-6.411,3.75-8.645c2.499-2.234,5.709-3.351,9.625-3.351
			c3.642,0,6.699,1.139,9.17,3.417c2.47,2.279,3.705,5.103,3.705,8.472c0,3.44-1.235,6.294-3.705,8.564
			c-2.471,2.27-5.566,3.404-9.286,3.404c-4.192,0-7.453-1.2-9.774-3.604C136.173,58.09,135.013,55.338,135.013,52.235z
			 M153.822,52.235c0-1.542-0.563-2.89-1.685-4.043c-1.121-1.153-2.43-1.729-3.928-1.729c-1.554,0-2.894,0.542-4.016,1.623
			c-1.121,1.081-1.682,2.376-1.682,3.882c0,1.649,0.557,3.052,1.669,4.204c1.109,1.151,2.455,1.728,4.028,1.728
			c1.498,0,2.807-0.563,3.928-1.688C153.26,55.085,153.822,53.76,153.822,52.235z"/>
	</g>
	<g>
		<path fill="#FFFFFF" d="M58.593,67.629h4.801v10.034c1.424-1.509,3.051-2.264,4.875-2.264c1.926,0,3.594,0.75,5,2.248
			c1.406,1.498,2.109,3.3,2.109,5.406c0,1.993-0.693,3.73-2.082,5.211c-1.387,1.481-3,2.221-4.838,2.221
			c-0.926,0-1.779-0.208-2.561-0.625c-0.783-0.417-1.629-1.082-2.541-1.994v2.349h-4.764V67.629z M66.845,79.725
			c-0.951,0-1.744,0.307-2.383,0.921c-0.637,0.614-0.957,1.438-0.957,2.475c0,0.991,0.336,1.81,1.004,2.458
			c0.668,0.648,1.51,0.972,2.521,0.972c0.926,0,1.695-0.318,2.309-0.955c0.613-0.636,0.918-1.438,0.918-2.406
			c0-0.946-0.334-1.76-1.002-2.441C68.587,80.065,67.782,79.725,66.845,79.725z"/>
		<path fill="#FFFFFF" d="M78.21,75.721h4.876v6.96c0,1.002,0.283,1.838,0.852,2.508c0.566,0.67,1.268,1.005,2.104,1.005
			c0.885,0,1.629-0.324,2.232-0.971c0.605-0.647,0.908-1.461,0.908-2.44v-7.062h4.877v8.446c0,1.791-0.758,3.292-2.277,4.502
			c-1.518,1.211-3.406,1.816-5.666,1.816c-2.396,0-4.313-0.608-5.751-1.825c-1.436-1.216-2.154-2.832-2.154-4.848V75.721z"/>
		<path fill="#FFFFFF" d="M96.686,70.577c0-0.734,0.295-1.367,0.883-1.898c0.588-0.53,1.293-0.796,2.119-0.796
			c0.823,0,1.528,0.266,2.118,0.796c0.586,0.532,0.881,1.164,0.881,1.898c0,0.746-0.295,1.384-0.881,1.915
			c-0.59,0.532-1.295,0.797-2.118,0.797c-0.826,0-1.531-0.265-2.119-0.797C96.98,71.961,96.686,71.323,96.686,70.577z
			 M97.305,75.957h4.802v14.528h-4.802V75.957z"/>
		<path fill="#FFFFFF" d="M105.796,67.933h4.801v22.553h-4.801V67.933z"/>
		<path fill="#FFFFFF" d="M125.248,67.696h4.84v22.553h-4.727v-2.483h-0.074c-1.398,1.813-3.135,2.72-5.204,2.72
			c-1.85,0-3.426-0.727-4.73-2.179c-1.305-1.453-1.957-3.228-1.957-5.322c0-2.095,0.674-3.882,2.021-5.363
			c1.35-1.481,2.965-2.222,4.852-2.222c1.073,0,1.978,0.177,2.714,0.532s1.492,0.933,2.266,1.731V67.696z M121.713,79.69
			c-0.785,0-1.521,0.326-2.206,0.98c-0.686,0.653-1.027,1.537-1.027,2.652c0,0.89,0.301,1.65,0.906,2.281s1.337,0.945,2.196,0.945
			c1.023,0,1.877-0.34,2.563-1.021s1.029-1.529,1.029-2.542c0-0.878-0.334-1.646-1.002-2.306
			C123.506,80.02,122.686,79.69,121.713,79.69z"/>
		<path fill="#FFFFFF" d="M148.942,83.947h-11.497c0.063,0.935,0.404,1.695,1.021,2.281c0.621,0.586,1.342,0.879,2.168,0.879
			c1.475,0,2.631-0.603,3.469-1.808l4.406,1.317c-1.637,2.579-4.182,3.869-7.633,3.869c-2.537,0-4.558-0.693-6.056-2.078
			c-1.502-1.385-2.252-3.249-2.252-5.591c0-2.106,0.791-3.874,2.373-5.305c1.582-1.43,3.528-2.145,5.841-2.145
			c2.326,0,4.268,0.751,5.824,2.255c1.557,1.503,2.336,3.381,2.336,5.634V83.947z M137.482,81.042h6.487
			c-0.449-1.813-1.48-2.72-3.094-2.72c-0.924,0-1.691,0.236-2.297,0.709C137.974,79.505,137.607,80.175,137.482,81.042z"/>
		<path fill="#FFFFFF" d="M156.894,75.957v2.145h0.076c0.475-0.72,1.025-1.292,1.656-1.714c0.633-0.422,1.217-0.634,1.754-0.634
			c0.326,0,0.619,0.023,0.883,0.068v4.73c-0.4-0.068-0.795-0.102-1.182-0.102c-0.988,0-1.754,0.313-2.297,0.938
			c-0.543,0.625-0.814,1.501-0.814,2.627v6.47h-4.877V75.957H156.894z"/>
	</g>
</g>
<g>
	<polygon fill="#FFFFFF" points="66.96,151.775 152.902,151.775 160.442,151.775 160.442,206.057 157.427,209.076 151.653,209.076 
		68.213,209.076 68.208,209.076 62.437,209.076 59.421,206.057 59.421,151.775 	"/>
	<polygon fill="#FFFFFF" points="62.437,151.775 62.437,111.066 65.451,108.052 69.716,108.052 150.149,108.052 154.412,108.052 
		157.427,111.066 157.427,151.775 	"/>
	<g>
		
			<line fill="none" stroke="#262261" stroke-width="2.126" stroke-linecap="round" stroke-linejoin="round" x1="160.442" y1="206.057" x2="152.902" y2="206.057"/>
		
			<line fill="none" stroke="#262261" stroke-width="2.126" stroke-linecap="round" stroke-linejoin="round" x1="152.902" y1="151.775" x2="152.902" y2="206.057"/>
		
			<line fill="none" stroke="#262261" stroke-width="2.126" stroke-linecap="round" stroke-linejoin="round" x1="66.96" y1="206.057" x2="66.96" y2="151.775"/>
		
			<line fill="none" stroke="#262261" stroke-width="2.126" stroke-linecap="round" stroke-linejoin="round" x1="59.421" y1="206.057" x2="66.96" y2="206.057"/>
		
			<line fill="none" stroke="#262261" stroke-width="2.126" stroke-linecap="round" stroke-linejoin="round" x1="66.96" y1="206.057" x2="68.208" y2="209.076"/>
		
			<line fill="none" stroke="#262261" stroke-width="2.126" stroke-linecap="round" stroke-linejoin="round" x1="152.902" y1="206.057" x2="66.96" y2="206.057"/>
		
			<line fill="none" stroke="#262261" stroke-width="2.126" stroke-linecap="round" stroke-linejoin="round" x1="151.653" y1="209.076" x2="152.902" y2="206.057"/>
	</g>
	<g>
		
			<line fill="none" stroke="#262261" stroke-width="2.126" stroke-linecap="round" stroke-linejoin="round" x1="68.47" y1="111.066" x2="62.437" y2="111.066"/>
		
			<line fill="none" stroke="#262261" stroke-width="2.126" stroke-linecap="round" stroke-linejoin="round" x1="68.47" y1="151.775" x2="68.47" y2="111.066"/>
		
			<line fill="none" stroke="#262261" stroke-width="2.126" stroke-linecap="round" stroke-linejoin="round" x1="151.396" y1="111.066" x2="151.396" y2="151.775"/>
		
			<line fill="none" stroke="#262261" stroke-width="2.126" stroke-linecap="round" stroke-linejoin="round" x1="151.396" y1="111.066" x2="157.427" y2="111.066"/>
		
			<line fill="none" stroke="#262261" stroke-width="2.126" stroke-linecap="round" stroke-linejoin="round" x1="69.716" y1="108.052" x2="68.47" y2="111.066"/>
		
			<line fill="none" stroke="#262261" stroke-width="2.126" stroke-linecap="round" stroke-linejoin="round" x1="68.47" y1="111.066" x2="151.396" y2="111.066"/>
		
			<line fill="none" stroke="#262261" stroke-width="2.126" stroke-linecap="round" stroke-linejoin="round" x1="150.149" y1="108.052" x2="151.396" y2="111.066"/>
		
			<line fill="none" stroke="#262261" stroke-width="2.126" stroke-linecap="round" stroke-linejoin="round" x1="59.421" y1="151.775" x2="160.442" y2="151.775"/>
	</g>
	<path fill="#262261" d="M129.833,146.817c6.79,0,12.287-5.5,12.287-12.286s-5.497-12.288-12.287-12.288
		c-6.784,0-12.286,5.502-12.286,12.288S123.049,146.817,129.833,146.817z"/>
	<path fill="#FFFFFF" d="M129.91,143.303c-4.852,0-8.783-3.935-8.783-8.787c0-4.847,3.932-8.778,8.783-8.778
		c4.851,0,8.782,3.932,8.782,8.778C138.692,139.368,134.761,143.303,129.91,143.303z"/>
	<path fill="#262261" d="M89.951,146.817c6.791,0,12.292-5.5,12.292-12.286s-5.501-12.288-12.292-12.288
		c-6.784,0-12.286,5.502-12.286,12.288S83.167,146.817,89.951,146.817z"/>
	<path fill="#FFFFFF" d="M90.029,143.303c-4.85,0-8.778-3.935-8.778-8.787c0-4.847,3.929-8.778,8.778-8.778
		c4.849,0,8.782,3.932,8.782,8.778C98.812,139.368,94.878,143.303,90.029,143.303z"/>
</g>
</svg>
